<?xml version="1.0" encoding="UTF-8"?>
<svg xmlns="http://www.w3.org/2000/svg" xmlns:xlink="http://www.w3.org/1999/xlink" width="4000px" height="5368px" viewBox="0 0 4000 5368" version="1.1">
<g id="surface1">
<path style=" stroke:none;fill-rule:evenodd;fill:rgb(72.156864%,72.156864%,72.156864%);fill-opacity:1;" d="M 1906.382812 2662.191406 C 2155.90625 2733.078125 2386.347656 2837.261719 2622.222656 2948.589844 C 2588.347656 3063.472656 2546.984375 3172.738281 2525.585938 3285.8125 C 2507.175781 3383.171875 2454.253906 3415.964844 2365.363281 3436.726562 C 2037.078125 3513.390625 1710.539062 3597.511719 1383.523438 3679.507812 C 1357.078125 3686.144531 1330.476562 3695.125 1306.667969 3708.015625 C 1289.871094 3717.09375 1277.652344 3734.648438 1263.398438 3748.457031 C 1280.667969 3762.265625 1295.96875 3783.15625 1315.554688 3788.644531 C 1402.824219 3813.183594 1491.269531 3833.53125 1579.398438 3854.992188 C 1862.222656 3923.847656 2144.699219 3994.160156 2428.253906 4059.902344 C 2484.984375 4073.046875 2517.460938 4097.773438 2529.523438 4154.40625 C 2535.90625 4184.308594 2549.300781 4212.722656 2564.824219 4256.941406 C 2491.9375 4226.277344 2433.363281 4200.816406 2374.160156 4176.851562 C 2119.109375 4073.617188 1856.507812 3996.191406 1586.792969 3941.878906 C 1353.398438 3894.863281 1141.683594 3791.21875 946.855469 3660.238281 C 708.921875 3500.246094 482.699219 3322.761719 250.222656 3154.484375 C 206.921875 3123.121094 202.160156 3083.601562 208.761719 3037.222656 C 255.300781 2711.140625 301.683594 2385.03125 348.539062 2059 C 351.207031 2040.375 357.777344 2022.3125 362.761719 2003.078125 C 492.0625 2081.28125 615.777344 2166.007812 748.0625 2233.90625 C 975.015625 2350.40625 1203.9375 2464.613281 1438.984375 2563.054688 C 1543.363281 2606.765625 1664.792969 2609.273438 1778.285156 2631.527344 C 1819.683594 2639.621094 1860.476562 2650.667969 1906.382812 2662.191406 Z M 1906.382812 2662.191406 "/>
<path style=" stroke:none;fill-rule:evenodd;fill:rgb(72.156864%,72.156864%,72.156864%);fill-opacity:1;" d="M 2597.523438 5307.242188 C 2235.652344 5312.511719 1880.09375 5317.019531 1524.570312 5322.636719 C 1315.175781 5325.9375 1105.808594 5331.019531 896.445312 5335.175781 C 676.476562 5339.523438 456.476562 5343.015625 236.539062 5348.382812 C 165.398438 5350.128906 94.347656 5356.539062 9.523438 5361.652344 C 54.507812 4924.71875 98.347656 4498.929688 143.207031 4063.300781 C 163.777344 4112.757812 176.792969 4155.328125 198.414062 4192.945312 C 221.429688 4233.007812 250.921875 4269.765625 280.539062 4305.542969 C 385.144531 4431.789062 522.285156 4516.136719 664.382812 4590.542969 C 952.445312 4741.394531 1258.601562 4848.4375 1573.90625 4921.289062 C 1982.761719 5015.761719 2394.476562 5099.21875 2807.175781 5175.246094 C 3057.492188 5221.371094 3312.03125 5244.449219 3565.078125 5284.542969 C 3244.667969 5292.003906 2924.253906 5299.464844 2597.523438 5307.242188 Z M 2597.523438 5307.242188 "/>
<path style=" stroke:none;fill-rule:evenodd;fill:rgb(90.980393%,13.333334%,13.333334%);fill-opacity:1;" d="M 2674.347656 4389.0625 C 2646.382812 4251.289062 2617.144531 4119.234375 2593.332031 3986.191406 C 2584.699219 3938.035156 2561.746094 3920.703125 2515.90625 3913.242188 C 2200.667969 3861.878906 1885.808594 3808.199219 1570.824219 3755.25 C 1562.570312 3753.855469 1554.414062 3752.171875 1542.855469 3737.285156 C 1603.300781 3722.046875 1663.460938 3705.507812 1724.253906 3691.792969 C 1987.714844 3632.367188 2251.144531 3572.5625 2515.238281 3516.054688 C 2558.824219 3506.753906 2578.539062 3489.613281 2588.730469 3445.773438 C 2653.585938 3167.183594 2721.363281 2889.292969 2788.253906 2611.144531 C 2790.984375 2599.8125 2794.414062 2588.671875 2807.777344 2577.65625 C 2838.636719 2744.695312 2869.585938 2911.734375 2900.316406 3078.773438 C 2921.746094 3195.183594 2946.667969 3311.113281 2962.476562 3428.25 C 2969.300781 3479.042969 2991.554688 3492.566406 3036.855469 3502.054688 C 3345.332031 3566.910156 3653.175781 3634.8125 3961.175781 3701.824219 C 3974.414062 3704.714844 3987.429688 3708.394531 4000 3721.761719 C 3831.746094 3757.125 3663.554688 3792.867188 3495.207031 3827.789062 C 3344.382812 3859.054688 3193.554688 3890.449219 3042.285156 3919.464844 C 3002.636719 3927.050781 2988.316406 3946.894531 2981.175781 3985.429688 C 2926.347656 4281.320312 2869.269531 4576.800781 2812.699219 4872.371094 C 2808.316406 4895.132812 2802.539062 4917.609375 2794.730469 4952.148438 C 2753.207031 4758.347656 2714.222656 4576.386719 2674.347656 4389.0625 Z M 2674.347656 4389.0625 "/>
<path style=" stroke:none;fill-rule:evenodd;fill:rgb(72.156864%,72.156864%,72.156864%);fill-opacity:1;" d="M 1206.347656 1402.917969 C 984.636719 1370.859375 768.09375 1340.480469 552.382812 1310.21875 C 1242.09375 1310.21875 1933.207031 1310.21875 2633.585938 1310.21875 C 2633.585938 1407.476562 2636.382812 1502.421875 2632.730469 1597.113281 C 2629.746094 1674.195312 2658.128906 1738.042969 2701.839844 1796.992188 C 2745.238281 1855.566406 2834.03125 1873.144531 2922.855469 1843.542969 C 2996.285156 1819.070312 3025.90625 1779.890625 3026.953125 1695.617188 C 3028.601562 1562.003906 3027.398438 1428.351562 3027.398438 1282.921875 C 3108.792969 1282.921875 3186.253906 1281.039062 3263.363281 1285.027344 C 3274.476562 1285.601562 3291.777344 1313.796875 3293.238281 1330.367188 C 3316.667969 1595.894531 3337.109375 1861.679688 3360.0625 2127.25 C 3374.761719 2297.1875 3392.445312 2466.867188 3409.523438 2644.320312 C 2833.871094 1938.8125 2076 1576.160156 1206.347656 1402.917969 Z M 1206.347656 1402.917969 "/>
<path style=" stroke:none;fill-rule:evenodd;fill:rgb(36.470589%,36.470589%,36.470589%);fill-opacity:1;" d="M 1441.144531 4212.46875 C 1239.839844 4312.019531 1043.746094 4411.695312 845.839844 4507.53125 C 818.921875 4520.546875 779.332031 4524.769531 751.683594 4515.277344 C 678.09375 4490.011719 607.398438 4456.011719 536.347656 4423.695312 C 434.09375 4377.15625 389.363281 4281.894531 343.554688 4188.691406 C 278.128906 4055.679688 207.9375 3922.925781 245.363281 3766.296875 C 268.445312 3669.699219 310.128906 3583.703125 393.839844 3523.230469 C 434.253906 3494.023438 472.792969 3488.976562 516.761719 3515.769531 C 676.570312 3613.128906 834.699219 3713.632812 998.09375 3804.550781 C 1170.730469 3900.609375 1347.9375 3988.574219 1524.921875 4076.503906 C 1560.539062 4094.21875 1604 4095.996094 1653.96875 4107.425781 C 1580.253906 4144.214844 1513.015625 4177.769531 1441.144531 4212.46875 Z M 1441.144531 4212.46875 "/>
<path style=" stroke:none;fill-rule:evenodd;fill:rgb(37.254903%,37.254903%,37.254903%);fill-opacity:1;" d="M 2315.96875 110.066406 C 2474.570312 150.507812 2580.285156 257.078125 2659.585938 382.515625 C 2752.824219 530.050781 2837.523438 685.566406 2903.398438 846.851562 C 2937.523438 930.425781 2924.792969 1033.816406 2929.90625 1128.4375 C 2938.601562 1289.082031 2944.382812 1449.878906 2952 1610.585938 C 2956.507812 1705.125 2920.570312 1757.839844 2851.363281 1755.390625 C 2802.953125 1753.679688 2778.507812 1730.25 2778.601562 1679.71875 C 2778.984375 1471.96875 2780.699219 1264.167969 2777.109375 1056.46875 C 2773.554688 852.867188 2720.285156 663.0625 2593.109375 500.507812 C 2441.238281 306.433594 2230.414062 207.386719 1994.539062 179.355469 C 1596.476562 132.058594 1271.363281 279.125 1037.078125 604.703125 C 916.792969 771.820312 913.109375 969.078125 939.492188 1166.808594 C 940.601562 1175.078125 941.808594 1183.335938 944.160156 1200.148438 C 881.332031 1196.226562 821.777344 1192.503906 753.332031 1188.234375 C 753.332031 1153.832031 750.984375 1122.800781 753.683594 1092.21875 C 776.890625 830.363281 846.414062 584.054688 1007.617188 371.421875 C 1086.601562 267.210938 1181.777344 177.957031 1308.253906 135.882812 C 1443.808594 90.789062 1580.601562 44.742188 1720.539062 19.386719 C 1806.855469 3.75 1901.269531 18.511719 1989.808594 33.175781 C 2098.03125 51.105469 2203.9375 83.21875 2315.96875 110.066406 Z M 2315.96875 110.066406 "/>
<path style=" stroke:none;fill-rule:evenodd;fill:rgb(36.862746%,36.862746%,36.862746%);fill-opacity:1;" d="M 399.492188 1827.804688 C 345.144531 1777.976562 341.554688 1719.132812 348.855469 1655.296875 C 355.839844 1594.1875 355.238281 1532.140625 363.652344 1471.304688 C 365.808594 1455.917969 390.921875 1430.515625 403.363281 1431.71875 C 807.078125 1470.742188 1211.90625 1504.59375 1599.175781 1639.238281 C 1620.984375 1646.820312 1641.808594 1657.289062 1673.015625 1670.6875 C 1583.460938 1704.707031 1499.554688 1731.886719 1419.652344 1767.90625 C 1256.253906 1841.535156 1094.09375 1918.097656 933.523438 1997.664062 C 894.921875 2016.78125 860.285156 2048.636719 831.109375 2081.21875 C 774.699219 2144.253906 736.855469 2156.777344 670.191406 2100.597656 C 588.160156 2031.433594 515.109375 1951.472656 438.699219 1875.613281 C 425.269531 1862.265625 414.570312 1846.140625 399.492188 1827.804688 Z M 399.492188 1827.804688 "/>
<path style=" stroke:none;fill-rule:evenodd;fill:rgb(36.862746%,36.862746%,36.862746%);fill-opacity:1;" d="M 3212.855469 3020.777344 C 3143.269531 2980.8125 3079.238281 2939.449219 3010.667969 2908.085938 C 2966.414062 2887.863281 2949.175781 2858.722656 2940.730469 2814.152344 C 2917.144531 2689.746094 2891.300781 2565.71875 2864.03125 2442.074219 C 2857.96875 2414.679688 2842.316406 2389.410156 2824.222656 2347.148438 C 2716.761719 2476.773438 2726.984375 2633.460938 2657.839844 2770.25 C 2477.300781 2699.492188 2292.253906 2626.957031 2095.238281 2549.71875 C 2280.636719 2463.40625 2466.414062 2398.394531 2628.222656 2295.511719 C 2793.652344 2190.316406 2891.90625 2278.0625 3007.96875 2367.316406 C 3170.761719 2492.546875 3289.9375 2651.652344 3387.492188 2829.613281 C 3392.347656 2838.40625 3401.746094 2849.261719 3399.714844 2856.59375 C 3371.652344 2959.414062 3341.96875 3061.761719 3309.777344 3174.453125 C 3273.046875 3115.089844 3244.761719 3069.378906 3212.855469 3020.777344 Z M 3212.855469 3020.777344 "/>
<path style=" stroke:none;fill-rule:evenodd;fill:rgb(38.039216%,38.039216%,38.039216%);fill-opacity:1;" d="M 3306.285156 5167.121094 C 2900.890625 5101.632812 2501.015625 5036.871094 2101.109375 4972.113281 C 2100.222656 4968.113281 2099.300781 4964.113281 2098.414062 4960.144531 C 2281.523438 4890.054688 2464.667969 4819.960938 2650.128906 4748.949219 C 2662.601562 4799.867188 2672.636719 4846.375 2685.871094 4891.925781 C 2691.683594 4911.863281 2700.699219 4932.847656 2714.160156 4948.113281 C 2746.601562 4984.78125 2772.476562 5041.160156 2833.746094 5025.09375 C 2890.824219 5010.113281 2873.269531 4952.84375 2880.191406 4911.925781 C 2891.492188 4845.199219 2898.253906 4777.742188 2908.09375 4710.761719 C 2917.429688 4647.242188 3006.921875 4601.433594 3064.984375 4631.398438 C 3177.144531 4689.207031 3290.0625 4745.871094 3399.808594 4808.027344 C 3528.507812 4880.945312 3575.523438 5000.207031 3574.601562 5142.804688 C 3574.445312 5163.5 3574.570312 5184.199219 3574.570312 5212.453125 C 3485.015625 5197.246094 3398.382812 5182.546875 3306.285156 5167.121094 Z M 3306.285156 5167.121094 "/>
<path style=" stroke:none;fill-rule:evenodd;fill:rgb(72.156864%,72.156864%,72.156864%);fill-opacity:1;" d="M 3548.476562 3971.242188 C 3557.429688 3995.144531 3563.585938 4017.492188 3563.746094 4039.839844 C 3564.921875 4210.945312 3563.398438 4382.078125 3565.90625 4553.148438 C 3567.109375 4634.957031 3575.269531 4716.699219 3580.953125 4809.296875 C 3507.9375 4764.789062 3445.523438 4723.171875 3379.871094 4687.554688 C 3264.855469 4625.179688 3148.636719 4564.863281 3031.207031 4507.214844 C 2993.269531 4488.582031 2983.839844 4468.234375 2994.699219 4428.078125 C 3025.429688 4314.335938 3052.667969 4199.644531 3080.855469 4085.234375 C 3088.382812 4054.730469 3099.175781 4035.429688 3137.523438 4030.539062 C 3273.015625 4013.300781 3407.839844 3990.414062 3548.476562 3971.242188 Z M 3548.476562 3971.242188 "/>
<path style=" stroke:none;fill-rule:evenodd;fill:rgb(72.156864%,72.156864%,72.156864%);fill-opacity:1;" d="M 3037.683594 3171.277344 C 3177.492188 3253.65625 3313.238281 3334.097656 3448.253906 3415.710938 C 3517.429688 3457.519531 3516.855469 3458.503906 3505.175781 3564.910156 C 3413.652344 3530.371094 3324.414062 3496.722656 3235.175781 3462.949219 C 3223.363281 3458.472656 3211.839844 3453.171875 3200 3448.757812 C 3065.523438 3398.441406 3015.652344 3321.460938 3022.890625 3174.199219 C 3022.984375 3172.578125 3029.714844 3171.277344 3037.683594 3171.277344 Z M 3037.683594 3171.277344 "/>
</g>
</svg>
