<svg width="1260" height="1691" xmlns="http://www.w3.org/2000/svg" xmlns:xlink="http://www.w3.org/1999/xlink" xml:space="preserve" overflow="hidden"><g transform="translate(-1448 -256)"><g><path d="M2048.51 1094.63C2127.11 1116.96 2199.7 1149.78 2274 1184.85 2263.33 1221.04 2250.3 1255.46 2243.56 1291.08 2237.76 1321.75 2221.09 1332.08 2193.09 1338.62 2089.68 1362.77 1986.82 1389.27 1883.81 1415.1 1875.48 1417.19 1867.1 1420.02 1859.6 1424.08 1854.31 1426.94 1850.46 1432.47 1845.97 1436.82 1851.41 1441.17 1856.23 1447.75 1862.4 1449.48 1889.89 1457.21 1917.75 1463.62 1945.51 1470.38 2034.6 1492.07 2123.58 1514.22 2212.9 1534.93 2230.77 1539.07 2241 1546.86 2244.8 1564.7 2246.81 1574.12 2251.03 1583.07 2255.92 1597 2232.96 1587.34 2214.51 1579.32 2195.86 1571.77 2115.52 1539.25 2032.8 1514.86 1947.84 1497.75 1874.32 1482.94 1807.63 1450.29 1746.26 1409.03 1671.31 1358.63 1600.05 1302.72 1526.82 1249.71 1513.18 1239.83 1511.68 1227.38 1513.76 1212.77 1528.42 1110.05 1543.03 1007.32 1557.79 904.616 1558.63 898.748 1560.7 893.058 1562.27 887 1603 911.635 1641.97 938.325 1683.64 959.714 1755.13 996.413 1827.24 1032.39 1901.28 1063.4 1934.16 1077.17 1972.41 1077.96 2008.16 1084.97 2021.2 1087.52 2034.05 1091 2048.51 1094.63Z" fill="#B8B8B8" fill-rule="evenodd" fill-opacity="1"/><path d="M2266.22 1927.86C2152.23 1929.52 2040.23 1930.94 1928.24 1932.71 1862.28 1933.75 1796.33 1935.35 1730.38 1936.66 1661.09 1938.03 1591.79 1939.13 1522.51 1940.82 1500.1 1941.37 1477.72 1943.39 1451 1945 1465.17 1807.36 1478.98 1673.23 1493.11 1536 1499.59 1551.58 1503.69 1564.99 1510.5 1576.84 1517.75 1589.46 1527.04 1601.04 1536.37 1612.31 1569.32 1652.08 1612.52 1678.65 1657.28 1702.09 1748.02 1749.61 1844.46 1783.33 1943.78 1806.28 2072.57 1836.04 2202.26 1862.33 2332.26 1886.28 2411.11 1900.81 2491.29 1908.08 2571 1920.71 2470.07 1923.06 2369.14 1925.41 2266.22 1927.86Z" fill="#B8B8B8" fill-rule="evenodd" fill-opacity="1"/><path d="M2290.42 1638.62C2281.61 1595.22 2272.4 1553.62 2264.9 1511.71 2262.18 1496.54 2254.95 1491.08 2240.51 1488.73 2141.21 1472.55 2042.03 1455.64 1942.81 1438.96 1940.21 1438.52 1937.64 1437.99 1934 1433.3 1953.04 1428.5 1971.99 1423.29 1991.14 1418.97 2074.13 1400.25 2157.11 1381.41 2240.3 1363.61 2254.03 1360.68 2260.24 1355.28 2263.45 1341.47 2283.88 1253.71 2305.23 1166.17 2326.3 1078.55 2327.16 1074.98 2328.24 1071.47 2332.45 1068 2342.17 1120.62 2351.92 1173.24 2361.6 1225.86 2368.35 1262.53 2376.2 1299.05 2381.18 1335.95 2383.33 1351.95 2390.34 1356.21 2404.61 1359.2 2501.78 1379.63 2598.75 1401.02 2695.77 1422.13 2699.94 1423.04 2704.04 1424.2 2708 1428.41 2655 1439.55 2602.02 1450.81 2548.99 1461.81 2501.48 1471.66 2453.97 1481.55 2406.32 1490.69 2393.83 1493.08 2389.32 1499.33 2387.07 1511.47 2369.8 1604.68 2351.82 1697.76 2334 1790.87 2332.62 1798.04 2330.8 1805.12 2328.34 1816 2315.26 1754.95 2302.98 1697.63 2290.42 1638.62Z" fill="#E82222" fill-rule="evenodd" fill-opacity="1"/><path d="M1828 697.94C1758.16 687.841 1689.95 678.271 1622 668.738 1839.26 668.738 2056.96 668.738 2277.58 668.738 2277.58 699.376 2278.46 729.285 2277.31 759.115 2276.37 783.397 2285.31 803.51 2299.08 822.079 2312.75 840.531 2340.72 846.068 2368.7 836.744 2391.83 829.034 2401.16 816.692 2401.49 790.145 2402.01 748.054 2401.63 705.952 2401.63 660.14 2427.27 660.14 2451.67 659.547 2475.96 660.803 2479.46 660.984 2484.91 669.866 2485.37 675.085 2492.75 758.73 2499.19 842.457 2506.42 926.116 2511.05 979.648 2516.62 1033.1 2522 1089 2340.67 866.755 2101.94 752.514 1828 697.94Z" fill="#B8B8B8" fill-rule="evenodd" fill-opacity="1"/><path d="M1901.96 1582.99C1838.55 1614.35 1776.78 1645.75 1714.44 1675.94 1705.96 1680.04 1693.49 1681.37 1684.78 1678.38 1661.6 1670.42 1639.33 1659.71 1616.95 1649.53 1584.74 1634.87 1570.65 1604.86 1556.22 1575.5 1535.61 1533.6 1513.5 1491.78 1525.29 1442.44 1532.56 1412.01 1545.69 1384.92 1572.06 1365.87 1584.79 1356.67 1596.93 1355.08 1610.78 1363.52 1661.12 1394.19 1710.93 1425.85 1762.4 1454.49 1816.78 1484.75 1872.6 1512.46 1928.35 1540.16 1939.57 1545.74 1953.26 1546.3 1969 1549.9 1945.78 1561.49 1924.6 1572.06 1901.96 1582.99Z" fill="#5D5D5D" fill-rule="evenodd" fill-opacity="1"/><path d="M2177.53 290.673C2227.49 303.412 2260.79 336.983 2285.77 376.498 2315.14 422.974 2341.82 471.964 2362.57 522.771 2373.32 549.098 2369.31 581.668 2370.92 611.475 2373.66 662.08 2375.48 712.734 2377.88 763.359 2379.3 793.14 2367.98 809.746 2346.18 808.974 2330.93 808.435 2323.23 801.055 2323.26 785.137 2323.38 719.692 2323.92 654.232 2322.79 588.804 2321.67 524.666 2304.89 464.874 2264.83 413.667 2216.99 352.531 2150.58 321.33 2076.28 312.5 1950.89 297.6 1848.48 343.929 1774.68 446.491 1736.79 499.135 1735.63 561.274 1743.94 623.562 1744.29 626.167 1744.67 628.768 1745.41 634.065 1725.62 632.829 1706.86 631.657 1685.3 630.311 1685.3 619.474 1684.56 609.699 1685.41 600.065 1692.72 517.577 1714.62 439.986 1765.4 373.004 1790.28 340.176 1820.26 312.059 1860.1 298.805 1902.8 284.6 1945.89 270.094 1989.97 262.107 2017.16 257.181 2046.9 261.832 2074.79 266.451 2108.88 272.099 2142.24 282.215 2177.53 290.673Z" fill="#5F5F5F" fill-rule="evenodd" fill-opacity="1"/><path d="M1573.84 831.786C1556.72 816.089 1555.59 797.552 1557.89 777.443 1560.09 758.193 1559.9 738.647 1562.55 719.483 1563.23 714.636 1571.14 706.634 1575.06 707.013 1702.23 719.306 1829.75 729.969 1951.74 772.385 1958.61 774.773 1965.17 778.071 1975 782.291 1946.79 793.008 1920.36 801.57 1895.19 812.917 1843.72 836.111 1792.64 860.229 1742.06 885.294 1729.9 891.316 1718.99 901.351 1709.8 911.615 1692.03 931.472 1680.11 935.417 1659.11 917.719 1633.27 895.932 1610.26 870.743 1586.19 846.846 1581.96 842.642 1578.59 837.562 1573.84 831.786Z" fill="#5E5E5E" fill-rule="evenodd" fill-opacity="1"/><path d="M2460.05 1207.59C2438.13 1195 2417.96 1181.97 2396.36 1172.09 2382.42 1165.72 2376.99 1156.54 2374.33 1142.5 2366.9 1103.31 2358.76 1064.24 2350.17 1025.29 2348.26 1016.66 2343.33 1008.7 2337.63 995.387 2303.78 1036.22 2307 1085.58 2285.22 1128.67 2228.35 1106.38 2170.06 1083.53 2108 1059.2 2166.4 1032.01 2224.92 1011.53 2275.89 979.12 2328 945.982 2358.95 973.624 2395.51 1001.74 2446.79 1041.19 2484.33 1091.31 2515.06 1147.37 2516.59 1150.14 2519.55 1153.56 2518.91 1155.87 2510.07 1188.26 2500.72 1220.5 2490.58 1256 2479.01 1237.3 2470.1 1222.9 2460.05 1207.59Z" fill="#5E5E5E" fill-rule="evenodd" fill-opacity="1"/><path d="M2489.48 1883.72C2361.78 1863.09 2235.82 1842.69 2109.85 1822.29 2109.57 1821.03 2109.28 1819.77 2109 1818.52 2166.68 1796.44 2224.37 1774.36 2282.79 1751.99 2286.72 1768.03 2289.88 1782.68 2294.05 1797.03 2295.88 1803.31 2298.72 1809.92 2302.96 1814.73 2313.18 1826.28 2321.33 1844.04 2340.63 1838.98 2358.61 1834.26 2353.08 1816.22 2355.26 1803.33 2358.82 1782.31 2360.95 1761.06 2364.05 1739.96 2366.99 1719.95 2395.18 1705.52 2413.47 1714.96 2448.8 1733.17 2484.37 1751.02 2518.94 1770.6 2559.48 1793.57 2574.29 1831.14 2574 1876.06 2573.95 1882.58 2573.99 1889.1 2573.99 1898 2545.78 1893.21 2518.49 1888.58 2489.48 1883.72Z" fill="#616161" fill-rule="evenodd" fill-opacity="1"/><path d="M2565.77 1507C2568.59 1514.53 2570.53 1521.57 2570.58 1528.61 2570.95 1582.51 2570.47 1636.42 2571.26 1690.31 2571.64 1716.08 2574.21 1741.83 2576 1771 2553 1756.98 2533.34 1743.87 2512.66 1732.65 2476.43 1713 2439.82 1694 2402.83 1675.84 2390.88 1669.97 2387.91 1663.56 2391.33 1650.91 2401.01 1615.08 2409.59 1578.95 2418.47 1542.91 2420.84 1533.3 2424.24 1527.22 2436.32 1525.68 2479 1520.25 2521.47 1513.04 2565.77 1507Z" fill="#B8B8B8" fill-rule="evenodd" fill-opacity="1"/><path d="M2404.87 1255C2448.91 1280.95 2491.67 1306.29 2534.2 1332 2555.99 1345.17 2555.81 1345.48 2552.13 1379 2523.3 1368.12 2495.19 1357.52 2467.08 1346.88 2463.36 1345.47 2459.73 1343.8 2456 1342.41 2413.64 1326.56 2397.93 1302.31 2400.21 1255.92 2400.24 1255.41 2402.36 1255 2404.87 1255Z" fill="#B8B8B8" fill-rule="evenodd" fill-opacity="1"/></g></g></svg>